<svg width="50" height="50" viewBox="0 0 50 50" fill="none" xmlns="http://www.w3.org/2000/svg">
<g opacity="0.7">
<circle cx="25" cy="25.0005" r="25" fill="#EDE0FF"/>
<circle cx="25" cy="25.0005" r="24.4318" stroke="#BB97F4" stroke-opacity="0.35" stroke-width="1.13644"/>
</g>
<path d="M32.0202 35.4281H18.8429C16.3169 35.4281 14.2614 33.3725 14.2614 30.8465C14.2614 30.4848 14.5541 30.192 14.9159 30.192H35.9473C36.309 30.192 36.6018 30.4848 36.6018 30.8465C36.6018 33.3725 34.5462 35.4281 32.0202 35.4281Z" fill="#8B3A8D"/>
<path d="M25.4317 13.0858C19.2964 13.0858 14.2615 16.9029 14.2615 21.5944C14.2615 21.9561 14.5542 22.2489 14.916 22.2489H35.9474C36.3092 22.2489 36.6019 21.9561 36.6019 21.5944C36.6019 16.9029 31.567 13.0858 25.4317 13.0858ZM20.6148 18.1301L19.3057 19.4391C19.0501 19.6947 18.6359 19.6948 18.3802 19.4391C18.1246 19.1834 18.1246 18.7692 18.3802 18.5136L19.6892 17.2046C19.9449 16.9489 20.3591 16.9489 20.6148 17.2046C20.8704 17.4602 20.8704 17.8744 20.6148 18.1301ZM24.5854 18.1301L23.2764 19.4391C23.0208 19.6947 22.6066 19.6948 22.3509 19.4391C22.0952 19.1834 22.0952 18.7692 22.3509 18.5136L23.6599 17.2046C23.9155 16.9489 24.3298 16.9489 24.5854 17.2046C24.8411 17.4602 24.8411 17.8744 24.5854 18.1301ZM28.5124 18.1301L27.2034 19.4391C26.9478 19.6947 26.5336 19.6948 26.2779 19.4391C26.0223 19.1834 26.0223 18.7692 26.2779 18.5136L27.5869 17.2046C27.8426 16.9489 28.2568 16.9489 28.5124 17.2046C28.7681 17.4602 28.7681 17.8744 28.5124 18.1301ZM32.1195 18.1301L30.8104 19.4391C30.5548 19.6947 30.1406 19.6948 29.8849 19.4391C29.6293 19.1834 29.6293 18.7692 29.8849 18.5136L31.1939 17.2046C31.4496 16.9489 31.8638 16.9489 32.1195 17.2046C32.3751 17.4602 32.3751 17.8744 32.1195 18.1301Z" fill="#8B3A8D"/>
<path d="M14.9159 24.9108C15.23 24.9108 15.5049 24.95 15.7405 25.0154C15.6482 25.313 15.6223 25.402 15.5704 26.3245C15.4002 26.259 15.1908 26.2198 14.9159 26.2198C14.5493 26.2198 14.2614 25.9318 14.2614 25.5653C14.2614 25.1987 14.5493 24.9108 14.9159 24.9108Z" fill="#8B3A8D"/>
<path d="M36.6017 25.5643C36.6017 25.9308 36.3138 26.2188 35.9472 26.2188C35.6723 26.2188 35.4629 26.258 35.2927 26.3235C35.2786 26.0722 35.3053 25.6032 35.1226 25.0145C35.3582 24.949 35.6331 24.9098 35.9472 24.9098C36.3138 24.9098 36.6017 25.1977 36.6017 25.5643Z" fill="#8B3A8D"/>
<path d="M15.7408 25.0159C16.3299 25.1599 16.7226 25.4479 17.0499 25.6966C17.4556 25.9977 17.7567 26.2202 18.4112 26.2202C19.0657 26.2202 19.3537 25.9977 19.7595 25.6966C20.2307 25.3431 20.8503 24.9112 21.9368 24.9112C23.0363 24.9112 23.6123 25.3432 24.0836 25.6966C24.4894 25.9977 24.7774 26.2202 25.4319 26.2202C26.0864 26.2202 26.3743 25.9977 26.7802 25.6966C27.2514 25.3431 27.8274 24.9112 28.9269 24.9112C30.0135 24.9112 30.6331 25.3432 31.1043 25.6966C31.51 25.9976 31.7981 26.2202 32.4526 26.2202C33.1071 26.2202 33.4081 25.9977 33.8139 25.6966C34.1412 25.4479 34.5339 25.1599 35.1229 25.0159C34.9849 24.5015 34.7548 24.0272 34.459 23.6022H16.4048C16.1089 24.0272 15.8789 24.5015 15.7408 25.0159Z" fill="#8B3A8D"/>
<path d="M34.4679 28.8393C34.9699 28.1228 35.2732 27.2582 35.2929 26.326C35.0311 26.4176 34.8348 26.5747 34.5991 26.7449C34.1278 27.0983 33.5519 27.5303 32.4523 27.5303C31.3659 27.5303 30.7899 27.0983 30.3186 26.7449C29.9129 26.4438 29.5812 26.2213 28.9267 26.2213C28.2722 26.2213 27.9712 26.4438 27.5654 26.7449C27.1073 27.0983 26.5182 27.5303 25.4317 27.5303C24.3452 27.5303 23.7561 27.0983 23.298 26.7449C22.8922 26.4438 22.5912 26.2213 21.9367 26.2213C21.2822 26.2213 20.9505 26.4438 20.5447 26.7449C20.0735 27.0983 19.4975 27.5303 18.411 27.5303C17.3115 27.5303 16.7355 27.0983 16.2643 26.7449C16.0285 26.5747 15.8322 26.4176 15.5704 26.326C15.5902 27.2582 15.8934 28.1228 16.3954 28.8393H34.4679Z" fill="#8B3A8D"/>
<path d="M31.9211 16.1726L18.0913 16.7045L17.0275 19.896L19.687 20.4279L34.0487 19.3641L31.9211 16.1726Z" fill="#8B3A8D"/>
</svg>
