<svg width="325" height="142" viewBox="0 0 325 142" fill="none" xmlns="http://www.w3.org/2000/svg">
<rect opacity="0.05" x="2" y="1.99976" width="321" height="138" rx="17.4" stroke="url(#paint0_linear_10_414)" stroke-width="4"/>
<g filter="url(#filter0_i_10_414)">
<path d="M149.43 16.9998H99.37C95.3991 16.9998 92.1801 20.2188 92.1801 24.1897V117.21C92.1801 121.181 95.3991 124.4 99.37 124.4H149.43C153.401 124.4 156.62 121.181 156.62 117.21V24.1897C156.62 20.2188 153.401 16.9998 149.43 16.9998Z" fill="#DA9B7C" fill-opacity="0.3"/>
</g>
<path opacity="0.2" d="M150.176 23.4438H98.624V117.956H150.176V23.4438Z" fill="url(#paint1_linear_10_414)"/>
<g filter="url(#filter1_i_10_414)">
<path d="M74.25 16.9998H24.19C20.2191 16.9998 17 20.2188 17 24.1897V117.21C17 121.181 20.2191 124.4 24.19 124.4H74.25C78.221 124.4 81.44 121.181 81.44 117.21V24.1897C81.44 20.2188 78.221 16.9998 74.25 16.9998Z" fill="#DA9B7C" fill-opacity="0.3"/>
</g>
<path opacity="0.2" d="M74.9961 23.4438H23.4441V117.956H74.9961V23.4438Z" fill="url(#paint2_linear_10_414)"/>
<g filter="url(#filter2_i_10_414)">
<path d="M224.61 16.9998H174.55C170.579 16.9998 167.36 20.2188 167.36 24.1897V117.21C167.36 121.181 170.579 124.4 174.55 124.4H224.61C228.581 124.4 231.8 121.181 231.8 117.21V24.1897C231.8 20.2188 228.581 16.9998 224.61 16.9998Z" fill="#DA9B7C" fill-opacity="0.3"/>
</g>
<g filter="url(#filter3_i_10_414)">
<path d="M300.05 16.9998H249.99C246.019 16.9998 242.8 20.2188 242.8 24.1897V117.21C242.8 121.181 246.019 124.4 249.99 124.4H300.05C304.021 124.4 307.24 121.181 307.24 117.21V24.1897C307.24 20.2188 304.021 16.9998 300.05 16.9998Z" fill="#DA9B7C" fill-opacity="0.3"/>
</g>
<path opacity="0.2" d="M225.356 23.4438H173.804V117.956H225.356V23.4438Z" fill="url(#paint3_linear_10_414)"/>
<path opacity="0.2" d="M300.796 23.4438H249.244V117.956H300.796V23.4438Z" fill="url(#paint4_linear_10_414)"/>
<path opacity="0.7" d="M59.704 72.7206C60.544 74.4006 60.964 76.4406 60.964 78.8406C60.964 81.3606 60.464 83.5206 59.464 85.3206C58.464 87.2006 56.944 88.6806 54.904 89.7606C52.864 90.8406 50.464 91.3806 47.704 91.3806C45.024 91.3806 42.664 90.8406 40.624 89.7606C38.624 88.6806 37.084 87.1206 36.004 85.0806C34.964 83.2006 34.444 81.1006 34.444 78.7806C34.444 76.5806 34.904 74.5206 35.824 72.6006C36.544 71.1206 37.644 69.8606 39.124 68.8206C39.204 68.7406 39.244 68.6606 39.244 68.5806C39.244 68.4606 39.204 68.3806 39.124 68.3406C37.924 67.5006 36.944 66.4806 36.184 65.2806C35.144 63.6006 34.624 61.7406 34.624 59.7006C34.624 57.2606 35.244 55.1406 36.484 53.3406C37.604 51.7006 39.144 50.4406 41.104 49.5606C43.064 48.6406 45.284 48.1806 47.764 48.1806C50.564 48.1806 52.964 48.7006 54.964 49.7406C56.964 50.7406 58.484 52.2606 59.524 54.3006C60.444 55.9806 60.904 57.8006 60.904 59.7606C60.904 61.7206 60.404 63.4806 59.404 65.0406C58.604 66.2406 57.564 67.3406 56.284 68.3406C56.164 68.3806 56.104 68.4406 56.104 68.5206C56.104 68.6006 56.164 68.6806 56.284 68.7606C57.804 69.7206 58.944 71.0406 59.704 72.7206ZM42.304 57.0606C41.784 57.9806 41.524 59.1006 41.524 60.4206C41.524 61.7806 41.844 62.9806 42.484 64.0206C43.604 65.7406 45.364 66.6006 47.764 66.6006C50.204 66.6006 52.004 65.6806 53.164 63.8406C53.764 62.8806 54.064 61.7206 54.064 60.3606C54.064 59.1206 53.824 58.0606 53.344 57.1806C52.784 56.2206 52.024 55.4806 51.064 54.9606C50.144 54.4006 49.044 54.1206 47.764 54.1206C46.484 54.1206 45.364 54.3806 44.404 54.9006C43.484 55.4206 42.784 56.1406 42.304 57.0606ZM52.744 83.0406C53.584 81.8406 54.004 80.2006 54.004 78.1206C54.004 76.9206 53.784 75.7806 53.344 74.7006C52.904 73.5806 52.204 72.7206 51.244 72.1206C50.284 71.5206 49.124 71.2206 47.764 71.2206C45.244 71.2206 43.424 72.3606 42.304 74.6406C41.824 75.7206 41.584 76.9206 41.584 78.2406C41.584 80.1206 41.944 81.6606 42.664 82.8606C43.744 84.6206 45.444 85.5006 47.764 85.5006C48.884 85.5006 49.864 85.3006 50.704 84.9006C51.544 84.4606 52.224 83.8406 52.744 83.0406Z" fill="#631E00"/>
<path opacity="0.7" d="M136.704 72.7206C137.544 74.4006 137.964 76.4406 137.964 78.8406C137.964 81.3606 137.464 83.5206 136.464 85.3206C135.464 87.2006 133.944 88.6806 131.904 89.7606C129.864 90.8406 127.464 91.3806 124.704 91.3806C122.024 91.3806 119.664 90.8406 117.624 89.7606C115.624 88.6806 114.084 87.1206 113.004 85.0806C111.964 83.2006 111.444 81.1006 111.444 78.7806C111.444 76.5806 111.904 74.5206 112.824 72.6006C113.544 71.1206 114.644 69.8606 116.124 68.8206C116.204 68.7406 116.244 68.6606 116.244 68.5806C116.244 68.4606 116.204 68.3806 116.124 68.3406C114.924 67.5006 113.944 66.4806 113.184 65.2806C112.144 63.6006 111.624 61.7406 111.624 59.7006C111.624 57.2606 112.244 55.1406 113.484 53.3406C114.604 51.7006 116.144 50.4406 118.104 49.5606C120.064 48.6406 122.284 48.1806 124.764 48.1806C127.564 48.1806 129.964 48.7006 131.964 49.7406C133.964 50.7406 135.484 52.2606 136.524 54.3006C137.444 55.9806 137.904 57.8006 137.904 59.7606C137.904 61.7206 137.404 63.4806 136.404 65.0406C135.604 66.2406 134.564 67.3406 133.284 68.3406C133.164 68.3806 133.104 68.4406 133.104 68.5206C133.104 68.6006 133.164 68.6806 133.284 68.7606C134.804 69.7206 135.944 71.0406 136.704 72.7206ZM119.304 57.0606C118.784 57.9806 118.524 59.1006 118.524 60.4206C118.524 61.7806 118.844 62.9806 119.484 64.0206C120.604 65.7406 122.364 66.6006 124.764 66.6006C127.204 66.6006 129.004 65.6806 130.164 63.8406C130.764 62.8806 131.064 61.7206 131.064 60.3606C131.064 59.1206 130.824 58.0606 130.344 57.1806C129.784 56.2206 129.024 55.4806 128.064 54.9606C127.144 54.4006 126.044 54.1206 124.764 54.1206C123.484 54.1206 122.364 54.3806 121.404 54.9006C120.484 55.4206 119.784 56.1406 119.304 57.0606ZM129.744 83.0406C130.584 81.8406 131.004 80.2006 131.004 78.1206C131.004 76.9206 130.784 75.7806 130.344 74.7006C129.904 73.5806 129.204 72.7206 128.244 72.1206C127.284 71.5206 126.124 71.2206 124.764 71.2206C122.244 71.2206 120.424 72.3606 119.304 74.6406C118.824 75.7206 118.584 76.9206 118.584 78.2406C118.584 80.1206 118.944 81.6606 119.664 82.8606C120.744 84.6206 122.444 85.5006 124.764 85.5006C125.884 85.5006 126.864 85.3006 127.704 84.9006C128.544 84.4606 129.224 83.8406 129.744 83.0406Z" fill="#631E00"/>
<path opacity="0.7" d="M211.704 72.7206C212.544 74.4006 212.964 76.4406 212.964 78.8406C212.964 81.3606 212.464 83.5206 211.464 85.3206C210.464 87.2006 208.944 88.6806 206.904 89.7606C204.864 90.8406 202.464 91.3806 199.704 91.3806C197.024 91.3806 194.664 90.8406 192.624 89.7606C190.624 88.6806 189.084 87.1206 188.004 85.0806C186.964 83.2006 186.444 81.1006 186.444 78.7806C186.444 76.5806 186.904 74.5206 187.824 72.6006C188.544 71.1206 189.644 69.8606 191.124 68.8206C191.204 68.7406 191.244 68.6606 191.244 68.5806C191.244 68.4606 191.204 68.3806 191.124 68.3406C189.924 67.5006 188.944 66.4806 188.184 65.2806C187.144 63.6006 186.624 61.7406 186.624 59.7006C186.624 57.2606 187.244 55.1406 188.484 53.3406C189.604 51.7006 191.144 50.4406 193.104 49.5606C195.064 48.6406 197.284 48.1806 199.764 48.1806C202.564 48.1806 204.964 48.7006 206.964 49.7406C208.964 50.7406 210.484 52.2606 211.524 54.3006C212.444 55.9806 212.904 57.8006 212.904 59.7606C212.904 61.7206 212.404 63.4806 211.404 65.0406C210.604 66.2406 209.564 67.3406 208.284 68.3406C208.164 68.3806 208.104 68.4406 208.104 68.5206C208.104 68.6006 208.164 68.6806 208.284 68.7606C209.804 69.7206 210.944 71.0406 211.704 72.7206ZM194.304 57.0606C193.784 57.9806 193.524 59.1006 193.524 60.4206C193.524 61.7806 193.844 62.9806 194.484 64.0206C195.604 65.7406 197.364 66.6006 199.764 66.6006C202.204 66.6006 204.004 65.6806 205.164 63.8406C205.764 62.8806 206.064 61.7206 206.064 60.3606C206.064 59.1206 205.824 58.0606 205.344 57.1806C204.784 56.2206 204.024 55.4806 203.064 54.9606C202.144 54.4006 201.044 54.1206 199.764 54.1206C198.484 54.1206 197.364 54.3806 196.404 54.9006C195.484 55.4206 194.784 56.1406 194.304 57.0606ZM204.744 83.0406C205.584 81.8406 206.004 80.2006 206.004 78.1206C206.004 76.9206 205.784 75.7806 205.344 74.7006C204.904 73.5806 204.204 72.7206 203.244 72.1206C202.284 71.5206 201.124 71.2206 199.764 71.2206C197.244 71.2206 195.424 72.3606 194.304 74.6406C193.824 75.7206 193.584 76.9206 193.584 78.2406C193.584 80.1206 193.944 81.6606 194.664 82.8606C195.744 84.6206 197.444 85.5006 199.764 85.5006C200.884 85.5006 201.864 85.3006 202.704 84.9006C203.544 84.4606 204.224 83.8406 204.744 83.0406Z" fill="#631E00"/>
<path opacity="0.7" d="M289.102 73.6206C289.742 73.6206 290.062 73.9406 290.062 74.5806V78.9006C290.062 79.5406 289.742 79.8606 289.102 79.8606H286.942C286.702 79.8606 286.582 79.9806 286.582 80.2206V89.9406C286.582 90.5806 286.262 90.9006 285.622 90.9006H280.582C279.942 90.9006 279.622 90.5806 279.622 89.9406V80.2206C279.622 79.9806 279.502 79.8606 279.262 79.8606H261.262C260.622 79.8606 260.302 79.5406 260.302 78.9006V75.4206C260.302 74.9806 260.382 74.6006 260.542 74.2806L271.822 49.6206C272.022 49.1406 272.382 48.9006 272.902 48.9006H278.242C278.802 48.9006 279.082 49.1206 279.082 49.5606L278.962 50.0406L268.462 73.2006C268.342 73.4806 268.442 73.6206 268.762 73.6206H279.262C279.502 73.6206 279.622 73.5006 279.622 73.2606V65.4006C279.622 64.7606 279.942 64.4406 280.582 64.4406H285.622C286.262 64.4406 286.582 64.7606 286.582 65.4006V73.2606C286.582 73.5006 286.702 73.6206 286.942 73.6206H289.102Z" fill="#631E00"/>
<defs>
<filter id="filter0_i_10_414" x="92.1801" y="16.9998" width="64.4401" height="109.197" filterUnits="userSpaceOnUse" color-interpolation-filters="sRGB">
<feFlood flood-opacity="0" result="BackgroundImageFix"/>
<feBlend mode="normal" in="SourceGraphic" in2="BackgroundImageFix" result="shape"/>
<feColorMatrix in="SourceAlpha" type="matrix" values="0 0 0 0 0 0 0 0 0 0 0 0 0 0 0 0 0 0 127 0" result="hardAlpha"/>
<feOffset dy="1.79749"/>
<feGaussianBlur stdDeviation="1.79749"/>
<feComposite in2="hardAlpha" operator="arithmetic" k2="-1" k3="1"/>
<feColorMatrix type="matrix" values="0 0 0 0 0 0 0 0 0 0 0 0 0 0 0 0 0 0 0.1 0"/>
<feBlend mode="normal" in2="shape" result="effect1_innerShadow_10_414"/>
</filter>
<filter id="filter1_i_10_414" x="17" y="16.9998" width="64.4401" height="109.197" filterUnits="userSpaceOnUse" color-interpolation-filters="sRGB">
<feFlood flood-opacity="0" result="BackgroundImageFix"/>
<feBlend mode="normal" in="SourceGraphic" in2="BackgroundImageFix" result="shape"/>
<feColorMatrix in="SourceAlpha" type="matrix" values="0 0 0 0 0 0 0 0 0 0 0 0 0 0 0 0 0 0 127 0" result="hardAlpha"/>
<feOffset dy="1.79749"/>
<feGaussianBlur stdDeviation="1.79749"/>
<feComposite in2="hardAlpha" operator="arithmetic" k2="-1" k3="1"/>
<feColorMatrix type="matrix" values="0 0 0 0 0 0 0 0 0 0 0 0 0 0 0 0 0 0 0.1 0"/>
<feBlend mode="normal" in2="shape" result="effect1_innerShadow_10_414"/>
</filter>
<filter id="filter2_i_10_414" x="167.36" y="16.9998" width="64.4401" height="109.197" filterUnits="userSpaceOnUse" color-interpolation-filters="sRGB">
<feFlood flood-opacity="0" result="BackgroundImageFix"/>
<feBlend mode="normal" in="SourceGraphic" in2="BackgroundImageFix" result="shape"/>
<feColorMatrix in="SourceAlpha" type="matrix" values="0 0 0 0 0 0 0 0 0 0 0 0 0 0 0 0 0 0 127 0" result="hardAlpha"/>
<feOffset dy="1.79749"/>
<feGaussianBlur stdDeviation="1.79749"/>
<feComposite in2="hardAlpha" operator="arithmetic" k2="-1" k3="1"/>
<feColorMatrix type="matrix" values="0 0 0 0 0 0 0 0 0 0 0 0 0 0 0 0 0 0 0.1 0"/>
<feBlend mode="normal" in2="shape" result="effect1_innerShadow_10_414"/>
</filter>
<filter id="filter3_i_10_414" x="242.8" y="16.9998" width="64.4401" height="109.197" filterUnits="userSpaceOnUse" color-interpolation-filters="sRGB">
<feFlood flood-opacity="0" result="BackgroundImageFix"/>
<feBlend mode="normal" in="SourceGraphic" in2="BackgroundImageFix" result="shape"/>
<feColorMatrix in="SourceAlpha" type="matrix" values="0 0 0 0 0 0 0 0 0 0 0 0 0 0 0 0 0 0 127 0" result="hardAlpha"/>
<feOffset dy="1.79749"/>
<feGaussianBlur stdDeviation="1.79749"/>
<feComposite in2="hardAlpha" operator="arithmetic" k2="-1" k3="1"/>
<feColorMatrix type="matrix" values="0 0 0 0 0 0 0 0 0 0 0 0 0 0 0 0 0 0 0.1 0"/>
<feBlend mode="normal" in2="shape" result="effect1_innerShadow_10_414"/>
</filter>
<linearGradient id="paint0_linear_10_414" x1="162.5" y1="142.002" x2="162.5" y2="-85.5396" gradientUnits="userSpaceOnUse">
<stop stop-color="#881722"/>
<stop offset="0.0564" stop-color="#9A2428"/>
<stop offset="0.1706" stop-color="#CF4535"/>
<stop offset="0.1925" stop-color="#DC4C38"/>
<stop offset="0.2775" stop-color="#D72027"/>
<stop offset="0.3828" stop-color="#DE5E46"/>
<stop offset="0.6381" stop-color="#D72027"/>
<stop offset="0.7848" stop-color="#D72027"/>
<stop offset="0.795" stop-color="#CE1F27"/>
<stop offset="0.889" stop-color="#881722"/>
</linearGradient>
<linearGradient id="paint1_linear_10_414" x1="124.401" y1="148.933" x2="124.401" y2="-3.89633" gradientUnits="userSpaceOnUse">
<stop stop-color="#925A25"/>
<stop offset="0.1333" stop-color="#925A25"/>
<stop offset="0.1521" stop-color="#965F26"/>
<stop offset="0.177" stop-color="#A26D29"/>
<stop offset="0.2052" stop-color="#B7862D"/>
<stop offset="0.2303" stop-color="#D3A732"/>
<stop offset="0.2342" stop-color="#CFA231"/>
<stop offset="0.2615" stop-color="#BD8A2D"/>
<stop offset="0.2902" stop-color="#B27B2B"/>
<stop offset="0.3211" stop-color="#AB732A"/>
<stop offset="0.3576" stop-color="#A97029"/>
<stop offset="0.412" stop-color="#B27C31"/>
<stop offset="0.5192" stop-color="#C9A04F"/>
<stop offset="0.6606" stop-color="#F8E38C"/>
<stop offset="0.6982" stop-color="#DFC271"/>
<stop offset="0.7788" stop-color="#B18139"/>
<stop offset="0.8153" stop-color="#9D6728"/>
<stop offset="0.8368" stop-color="#996228"/>
<stop offset="0.8652" stop-color="#8D542A"/>
<stop offset="0.8866" stop-color="#81462B"/>
</linearGradient>
<linearGradient id="paint2_linear_10_414" x1="49.2206" y1="148.933" x2="49.2206" y2="-3.89633" gradientUnits="userSpaceOnUse">
<stop stop-color="#925A25"/>
<stop offset="0.1333" stop-color="#925A25"/>
<stop offset="0.1521" stop-color="#965F26"/>
<stop offset="0.177" stop-color="#A26D29"/>
<stop offset="0.2052" stop-color="#B7862D"/>
<stop offset="0.2303" stop-color="#D3A732"/>
<stop offset="0.2342" stop-color="#CFA231"/>
<stop offset="0.2615" stop-color="#BD8A2D"/>
<stop offset="0.2902" stop-color="#B27B2B"/>
<stop offset="0.3211" stop-color="#AB732A"/>
<stop offset="0.3576" stop-color="#A97029"/>
<stop offset="0.412" stop-color="#B27C31"/>
<stop offset="0.5192" stop-color="#C9A04F"/>
<stop offset="0.6606" stop-color="#F8E38C"/>
<stop offset="0.6982" stop-color="#DFC271"/>
<stop offset="0.7788" stop-color="#B18139"/>
<stop offset="0.8153" stop-color="#9D6728"/>
<stop offset="0.8368" stop-color="#996228"/>
<stop offset="0.8652" stop-color="#8D542A"/>
<stop offset="0.8866" stop-color="#81462B"/>
</linearGradient>
<linearGradient id="paint3_linear_10_414" x1="199.58" y1="148.933" x2="199.58" y2="-3.89633" gradientUnits="userSpaceOnUse">
<stop stop-color="#925A25"/>
<stop offset="0.1333" stop-color="#925A25"/>
<stop offset="0.1521" stop-color="#965F26"/>
<stop offset="0.177" stop-color="#A26D29"/>
<stop offset="0.2052" stop-color="#B7862D"/>
<stop offset="0.2303" stop-color="#D3A732"/>
<stop offset="0.2342" stop-color="#CFA231"/>
<stop offset="0.2615" stop-color="#BD8A2D"/>
<stop offset="0.2902" stop-color="#B27B2B"/>
<stop offset="0.3211" stop-color="#AB732A"/>
<stop offset="0.3576" stop-color="#A97029"/>
<stop offset="0.412" stop-color="#B27C31"/>
<stop offset="0.5192" stop-color="#C9A04F"/>
<stop offset="0.6606" stop-color="#F8E38C"/>
<stop offset="0.6982" stop-color="#DFC271"/>
<stop offset="0.7788" stop-color="#B18139"/>
<stop offset="0.8153" stop-color="#9D6728"/>
<stop offset="0.8368" stop-color="#996228"/>
<stop offset="0.8652" stop-color="#8D542A"/>
<stop offset="0.8866" stop-color="#81462B"/>
</linearGradient>
<linearGradient id="paint4_linear_10_414" x1="275.02" y1="148.933" x2="275.02" y2="-3.89633" gradientUnits="userSpaceOnUse">
<stop stop-color="#925A25"/>
<stop offset="0.1333" stop-color="#925A25"/>
<stop offset="0.1521" stop-color="#965F26"/>
<stop offset="0.177" stop-color="#A26D29"/>
<stop offset="0.2052" stop-color="#B7862D"/>
<stop offset="0.2303" stop-color="#D3A732"/>
<stop offset="0.2342" stop-color="#CFA231"/>
<stop offset="0.2615" stop-color="#BD8A2D"/>
<stop offset="0.2902" stop-color="#B27B2B"/>
<stop offset="0.3211" stop-color="#AB732A"/>
<stop offset="0.3576" stop-color="#A97029"/>
<stop offset="0.412" stop-color="#B27C31"/>
<stop offset="0.5192" stop-color="#C9A04F"/>
<stop offset="0.6606" stop-color="#F8E38C"/>
<stop offset="0.6982" stop-color="#DFC271"/>
<stop offset="0.7788" stop-color="#B18139"/>
<stop offset="0.8153" stop-color="#9D6728"/>
<stop offset="0.8368" stop-color="#996228"/>
<stop offset="0.8652" stop-color="#8D542A"/>
<stop offset="0.8866" stop-color="#81462B"/>
</linearGradient>
</defs>
</svg>
