<svg width="50" height="50" viewBox="0 0 50 50" fill="none" xmlns="http://www.w3.org/2000/svg">
<g opacity="0.7">
<circle cx="25" cy="25.0004" r="25" fill="#D7ECF3"/>
<circle cx="25" cy="25.0004" r="24.5" stroke="#97DEF4" stroke-opacity="0.35"/>
</g>
<path d="M35.2845 38.9571V13.5601C35.2845 13.2532 35.0318 13.0005 34.7249 13.0005H16.2412C15.9343 13.0005 15.6816 13.2532 15.6816 13.5601C15.6816 27.4228 15.6816 39.1918 15.6816 39.1918L15.8802 39.0293L18.3531 36.8632C18.5697 36.6647 18.9127 36.6827 19.1112 36.8813L21.7286 39.4084C21.9091 39.5708 22.1798 39.5889 22.3603 39.4084L25.0859 36.8813C25.3026 36.6827 25.6275 36.6827 25.8441 36.8813L28.6419 39.4264C28.8224 39.5889 29.0932 39.5889 29.2556 39.4264L32.1076 36.8452C32.3242 36.6466 32.6491 36.6466 32.8477 36.8452L35.0859 38.7946L35.2845 38.9571ZM19.2376 18.5781H25.7899C26.0607 18.5781 26.2953 18.7586 26.3314 19.0113C26.3675 19.3362 26.1329 19.607 25.826 19.607H19.2737C19.0029 19.607 18.7683 19.4265 18.7322 19.1738C18.6961 18.8488 18.9307 18.5781 19.2376 18.5781ZM31.5661 34.5167H19.2917C19.021 34.5167 18.7863 34.3362 18.7502 34.0835C18.7141 33.7586 18.9488 33.4878 19.2556 33.4878H31.548C31.8188 33.4878 32.0534 33.6683 32.0895 33.921C32.1256 34.2459 31.8729 34.5167 31.5661 34.5167ZM31.5661 31.5383H19.2737C19.0029 31.5383 18.7683 31.3578 18.7322 31.1051C18.6961 30.7802 18.9307 30.5095 19.2376 30.5095H31.53C31.8007 30.5095 32.0354 30.69 32.0715 30.9427C32.1256 31.2676 31.8729 31.5383 31.5661 31.5383ZM31.5661 28.56H19.2737C19.0029 28.56 18.7683 28.3795 18.7322 28.1268C18.6961 27.8019 18.9307 27.5311 19.2376 27.5311H31.53C31.8007 27.5311 32.0354 27.7116 32.0715 27.9643C32.1256 28.2712 31.8729 28.56 31.5661 28.56ZM31.5661 25.5636H19.2737C19.0029 25.5636 18.7683 25.3831 18.7322 25.1304C18.6961 24.8055 18.9307 24.5348 19.2376 24.5348H31.53C31.8007 24.5348 32.0354 24.7153 32.0715 24.968C32.1256 25.2929 31.8729 25.5636 31.5661 25.5636ZM31.5661 22.5853H19.2917C19.021 22.5853 18.7863 22.4048 18.7502 22.1521C18.7141 21.8272 18.9488 21.5564 19.2556 21.5564H31.548C31.8188 21.5564 32.0534 21.7369 32.0895 21.9896C32.1256 22.3145 31.8729 22.5853 31.5661 22.5853Z" fill="#3A5B8D"/>
</svg>
