<svg width="50" height="50" viewBox="0 0 50 50" fill="none" xmlns="http://www.w3.org/2000/svg">
<g opacity="0.7">
<circle cx="25" cy="25" r="25" fill="#F4E7B6"/>
<circle cx="25" cy="25" r="24.5" stroke="#F4DA97" stroke-opacity="0.35"/>
</g>
<path d="M32.8911 15.2034C33.2838 15.4281 33.3907 15.9462 33.119 16.308L27.2121 24.1746C27.1997 24.1911 27.193 24.2112 27.193 24.2319C27.193 24.2897 27.2439 24.3342 27.3011 24.3266L36.5479 23.0874C36.999 23.027 37.4 23.3779 37.4 23.833V26.7786C37.4 27.2296 37.0058 27.5792 36.558 27.5254L27.3 26.4127C27.2431 26.4058 27.193 26.4503 27.193 26.5076C27.193 26.5291 27.2002 26.55 27.2136 26.5669L33.1484 34.0798C33.4325 34.4395 33.3316 34.9675 32.9349 35.1971L30.1614 36.8023C29.7697 37.0291 29.2679 36.861 29.0917 36.4441L25.3997 27.7067C25.3828 27.6667 25.3436 27.6407 25.3002 27.6407C25.2578 27.6407 25.2194 27.6655 25.2018 27.704L21.1993 36.5096C21.0097 36.9266 20.4946 37.0788 20.1089 36.8318L17.676 35.2741C17.3048 35.0364 17.2166 34.5319 17.4851 34.1824L23.3897 26.496C23.4025 26.4794 23.4094 26.4589 23.4094 26.4379C23.4094 26.3803 23.3588 26.3359 23.3017 26.3433L14.2489 27.5166C13.7989 27.5749 13.4 27.2244 13.4 26.7706V23.83C13.4 23.3759 13.7993 23.0254 14.2496 23.0841L23.2309 24.2565C23.2881 24.2639 23.3388 24.2194 23.3388 24.1617C23.3388 24.1408 23.332 24.1205 23.3194 24.1039L17.5007 16.4452C17.2272 16.0852 17.3307 15.5671 17.7215 15.3398L20.3809 13.7934C20.7688 13.5678 21.2666 13.7298 21.4474 14.1404L25.2729 22.8244C25.2901 22.8634 25.3288 22.8886 25.3714 22.8886C25.4145 22.8886 25.4534 22.863 25.4704 22.8235L29.2318 14.0744C29.4092 13.6617 29.9065 13.4955 30.2964 13.7186L32.8911 15.2034Z" fill="#8D623A"/>
</svg>
